<svg xmlns="http://www.w3.org/2000/svg" viewBox="0 0 64 64" width="80" height="80">
  <path fill="#C2BFB6" d="M57.5 54.6c0 1.6-1.3 2.8-2.8 2.8H9.4c-1.6 0-2.8-1.3-2.8-2.8V31.8c.1-1.6 1.3-2.9 2.9-3.3h45c1.6.5 3 1.7 3 3.3v22.8z"/>
  <path fill="#A29E97" d="M51.5 40.5c0 .2-16.7 17-16.8 16.9H9.4c-1.6 0-2.8-1.3-2.8-2.8V31.8c0-1.6 1.3-2.8 2.8-2.8h2.8c0 .1-.1 9.8-.1 11.4l39.4.1z"/>
  <path fill="#BFD56F" d="M16.1 49.8c0 1.1-.9 2.1-2.1 2.1s-2.1-.9-2.1-2.1.9-2.1 2.1-2.1c1.1.1 2.1 1 2.1 2.1z"/>
  <path fill="#CA3C45" d="M22.3 49.8c0 1.1-.9 2.1-2.1 2.1-1.1 0-2.1-.9-2.1-2.1s.9-2.1 2.1-2.1c1.2.1 2.1 1 2.1 2.1zM28.4 49.8c0 1.1-.9 2.1-2.1 2.1s-2.1-.9-2.1-2.1.9-2.1 2.1-2.1c1.1.1 2.1 1 2.1 2.1z"/>
  <path fill="#F2C550" d="M51.5 40.5H11.6l.1-31.1c0-1.6 1.2-2.8 2.8-2.8h25.9l11 11.1.1 22.8z"/>
  <path fill="#BB9840" d="M41.5 18.5l9.9 10.1v-11l-9-9"/>
  <g fill="#F7E3A6">
    <path d="M21.5 16.5h19.9v2.9H21.5v-2.9zM21.6 23.6h19.9v2.9H21.6v-2.9zM21.6 30.6h19.9v2.9H21.6v-2.9z"/>
  </g>
  <path fill="#FDE9B5" d="M51.5 17.5h-10v-11l10 11z"/>
  <path fill="#585753" d="M9.5 40.5h45v3h-45v-3z"/>
</svg>
