<?xml version="1.0" encoding="utf-8"?>
<!-- Generator: Adobe Illustrator 25.4.1, SVG Export Plug-In . SVG Version: 6.00 Build 0)  -->
<svg version="1.1" xmlns="http://www.w3.org/2000/svg" xmlns:xlink="http://www.w3.org/1999/xlink" x="0px" y="0px" width="236px"
	 height="153px" viewBox="0 0 236 153" style="enable-background:new 0 0 236 153;" xml:space="preserve">
<style type="text/css">
	.st0{fill:#EEEEEE;stroke:#2A2C32;stroke-width:0.7267;stroke-miterlimit:10;}
	.st1{clip-path:url(#SVGID_00000181081676805538864370000002523420158404257443_);}
	.st2{fill:#2A2C32;}
	.st3{fill:#86C0C8;}
	.st4{fill:#EEEEEE;}
	.st5{fill:none;stroke:#EEEEEE;stroke-width:0.8;stroke-miterlimit:10;}
	.st6{fill:none;stroke:#2A2C32;stroke-width:0.8;stroke-miterlimit:10;}
	.st7{fill:#FFFFFF;}
	.st8{fill:#EEEEEE;stroke:#2A2C32;stroke-width:0.8;stroke-linecap:round;stroke-linejoin:round;}
	.st9{fill:#FFFFFF;stroke:#2A2C32;stroke-width:0.8;stroke-linecap:round;stroke-linejoin:round;}
	.st10{fill:#2A2C32;stroke:#2A2C32;stroke-width:0.8;stroke-miterlimit:10;}
	.st11{fill:none;stroke:#2A2C32;stroke-width:0.8;stroke-linecap:round;stroke-linejoin:round;}
	.st12{fill:#F9C9C4;}
	.st13{fill:none;stroke:#000000;stroke-width:0.8;stroke-linecap:round;stroke-linejoin:round;}
	.st14{fill:#FFFFFF;stroke:#2A2C32;stroke-width:0.8;stroke-miterlimit:10;}
	.st15{fill:#E5D4D1;stroke:#2A2C32;stroke-width:0.8;stroke-miterlimit:10;}
	.st16{fill:#E5D4D1;stroke:#2A2C32;stroke-width:0.8;stroke-linecap:round;stroke-linejoin:round;}
	.st17{fill:none;stroke:#2A2C32;stroke-width:0.8;}
	.st18{fill:#EEEEEE;stroke:#2A2C32;stroke-width:0.8;stroke-miterlimit:10;}
	.st19{fill:#E5D3D0;stroke:#2A2C32;stroke-width:0.8;stroke-miterlimit:10;}
	.st20{fill:#EEEEEE;stroke:#2B2C32;stroke-width:0.8;stroke-linecap:round;stroke-linejoin:round;stroke-miterlimit:10;}
	.st21{fill:#04677E;stroke:#2B2C32;stroke-width:0.8;stroke-miterlimit:10;}
	.st22{fill:#F9C9C4;stroke:#2B2C32;stroke-width:0.8;stroke-linecap:round;stroke-linejoin:round;stroke-miterlimit:10;}
	.st23{fill:#7C7D7E;stroke:#2A2C32;stroke-width:0.8;stroke-miterlimit:10;}
	.st24{fill:#380B36;}
	.st25{fill:#DD5533;}
	.st26{fill:#7C7D7E;stroke:#2A2C32;stroke-width:0.8;stroke-linejoin:bevel;stroke-miterlimit:10;}
	.st27{fill:#FFD8AC;}
	.st28{fill:#EB8642;}
	.st29{fill:#04677E;}
	.st30{fill:#86C0C8;stroke:#2B2C32;stroke-width:0.8;stroke-linecap:round;stroke-linejoin:round;stroke-miterlimit:10;}
	.st31{fill:none;stroke:#FFFFFF;stroke-width:0.8;stroke-miterlimit:10;}
	.st32{fill:#EEEEEE;stroke:#2A2C32;stroke-width:0.8;stroke-linejoin:bevel;stroke-miterlimit:10;}
	.st33{fill:#0BA3AD;stroke:#2A2C32;stroke-width:0.8;stroke-linejoin:bevel;stroke-miterlimit:10;}
	.st34{fill:#EEEEEE;stroke:#2A2C32;stroke-width:0.8;stroke-linecap:round;stroke-linejoin:round;stroke-miterlimit:10;}
	.st35{fill:none;stroke:#2A2C32;stroke-width:0.8;stroke-linecap:round;stroke-linejoin:round;stroke-miterlimit:10;}
	.st36{fill:#7C7D7E;}
	.st37{fill:url(#);}
	.st38{fill:#2A2C32;stroke:#2A2C32;stroke-width:0.8;stroke-linecap:round;stroke-linejoin:round;stroke-miterlimit:10;}
	.st39{clip-path:url(#SVGID_00000157992608376105469050000017096588119296375447_);}
	.st40{fill:#2A2C32;stroke:#EEEEEE;stroke-width:0.8;stroke-linecap:round;stroke-linejoin:round;stroke-miterlimit:10;}
	.st41{clip-path:url(#SVGID_00000108273391024866277100000009979957359481768580_);}
	.st42{fill:#F2796D;stroke:#2A2C32;stroke-width:0.8;stroke-linecap:round;stroke-linejoin:round;stroke-miterlimit:10;}
	.st43{clip-path:url(#SVGID_00000100374830168322860010000013699027610967857801_);}
	.st44{fill:#04677E;stroke:#2A2C32;stroke-width:0.8;stroke-linecap:round;stroke-linejoin:round;stroke-miterlimit:10;}
	.st45{fill:#86C0C8;stroke:#2A2C32;stroke-width:0.8;stroke-linecap:round;stroke-linejoin:round;stroke-miterlimit:10;}
	.st46{fill:none;stroke:#EEEEEE;stroke-width:0.8;stroke-linecap:round;stroke-linejoin:round;stroke-miterlimit:10;}
	.st47{clip-path:url(#SVGID_00000016770815813663892460000005979796423985415338_);}
	.st48{fill:#E5D4D1;}
	.st49{fill:#CBBFC1;}
	.st50{fill:none;stroke:#2A2C32;stroke-width:0.8;stroke-linecap:round;stroke-miterlimit:10;}
	.st51{fill:none;stroke:#EEEEEE;stroke-width:0.8;}
	.st52{clip-path:url(#SVGID_00000019655370924055247420000016258465901723240599_);}
</style>
<g id="Warstwa_1">
</g>
<g id="Warstwa_2">
	<g>
		<path class="st49" d="M17,81.9c0.1,0,0.1,0,0.2,0c0.1,0.4,0.3,0.7,0.6,0.9c0.4,0.4,1,0.7,1.7,0.7h2c0.1,0.5,0.3,0.9,0.7,1.2
			c0.4,0.4,1,0.7,1.7,0.7h14.8l3.7,10c0,0,10.5,36,16.1,55.7h38.7l2-18.2c-3.2,0.5-6.7,0.3-10-0.3l2.1,18.5l-9.2-20.4l-1.7-3.7
			l-3.6-7.3L61.1,87.4c0,0-2.2-4.1-5.2-7.4v0c-4-5.4-11.4-8.4-14.9-8.4H28.5c-0.7,0-1.3,0.3-1.7,0.7s-0.7,1-0.7,1.7
			c0,0.3,0.1,0.7,0.2,0.9h-8.4c-1.3,0-2.4,1.1-2.4,2.4c0,0.1,0,0.1,0,0.2c-0.5,0.4-0.9,1.1-0.9,1.9C14.6,80.7,15.4,81.9,17,81.9z"/>
		<path class="st29" d="M194.8,151.2l-3.8-24.8l0-0.1c0,0,0,0,0,0l0,0l26.2-10l-3.5-9.3c-1.4-3.8-4.2-6.8-7.8-8.7
			c-8-4-14.8-8.1-21.8-10.8c-4.6-1.8-18.1-6.5-18.1-6.5l0,0c-4.1,5-11,7-17.4,6.4l0,0.1v59l0.2,4.7H194.8z"/>
		<polygon class="st29" points="115.6,105.7 115.6,120 126.2,125.3 136.8,120.1 136.8,105.7 		"/>
		<path class="st29" d="M82.2,130.7c2.1,0.8,4.5,1.5,7.1,2c3.3,0.6,6.8,0.8,10,0.3l-2,18.2h51.4v-4.7v-59l0-0.1
			c-5.2-0.5-10.1-2.8-12.7-6.5l0,0l-17.5,4.6c-6.6,1.7-19.2,6.8-25.4,10.3c-7.6,4.3-16.1,24-16.1,24l3.6,7.3L82.2,130.7z
			 M115.6,105.7h21.2v14.4l-10.6,5.2l-10.6-5.4V105.7z"/>
		<path class="st49" d="M217.3,116.8L217.3,116.8l-0.1-0.6c-10.8,8.2-18.3,10-26.2,10l0,0.1l2.2,13.5l-0.1,0l1.9,11.4h27.9
			L217.3,116.8z"/>
		<path class="st2" d="M82.2,130.7l9.2,20.4l-2.1-18.5C86.7,132.3,84.3,131.6,82.2,130.7z"/>
		<path class="st49" d="M128.9,31.7c-2.1,0.7-3.5,2.7-3.5,5c0,1.7,0.6,4.4,2,5.3h0.2C127.7,38.9,128.1,35.5,128.9,31.7z"/>
		<path class="st2" d="M127.7,45.8c-0.1-0.9-0.1-1.9-0.1-2.9c-2.1,0.1-3.7-0.6-3.9-2.1C123.1,42.6,124.2,45,127.7,45.8z"/>
		<path class="st2" d="M132.3,50.1c-1.5,0-2.8-0.3-4-0.9c0.4,1.5,1.1,2.9,1.9,4c0.7,0.9,1.3,1.8,1.9,2.6l0.1-0.1V50.1z"/>
		<path class="st49" d="M133.4,45.8c-2.4,0.4-4.2,0.4-5.7,0c0.1,1.2,0.3,2.4,0.6,3.4c1.2,0.6,2.5,0.9,4,0.9v5.6l-0.1,0.1
			c0.2,0.2,0.3,0.4,0.5,0.7l0.1,0c1.2-0.2,4.3-0.7,4.3-2.3c0-2-2.2-3.1-2.2-4.2v-1.9l0,0C133.7,47,133.4,45.8,133.4,45.8z"/>
		<path class="st2" d="M133.2,32c0.3-0.2,0.5-0.6,0.5-1c0-0.6-0.5-1.1-1.1-1.1c-0.6,0-1,0.4-1.1,0.9c0,0.1,0,0.2,0,0.2
			c0,0.6,0.5,1.2,1.1,1.2C132.8,32.2,133,32.2,133.2,32z"/>
		<path class="st2" d="M132.7,56.5L132.7,56.5c1.1,1.6,2.1,2.9,3.2,4.1c0.3,0.3,0.6,0.6,0.8,0.8c2.6,2.4,5.5,3.2,9.6,1.3
			c0.9-0.4,1.9-1,3-1.7c2.1-1.4,4.5-3.4,7.3-6.1c4.9-4.7,5.5-12.6,5.5-21.8h-0.4h-1.2c0,0-2.9,17-13.4,17v0.1v6.3
			c0,0-4.7-0.4-4.7-2.4c0-1.8,2-2.9,2.2-4c0-0.1,0-0.1,0-0.2v-1.8c-1.1,1.1-2.6,1.4-5,1.5c-2.4,0.1-4-0.7-4.9-1.6l0,0V50
			c0,1.1,2.2,2.2,2.2,4.2C137,55.7,133.9,56.3,132.7,56.5z"/>
		<path class="st49" d="M142.6,45.9c-1.5-0.2-3.2-0.6-5.1-1.3c-1.1,0.4-2,0.6-3,0.9l0.1,0.6c0,0,5.3,1.3,7.9,0.1L142.6,45.9z"/>
		<path class="st2" d="M142.6,45.9c1.3,0.2,2.4,0.2,3.4,0.1h0c4.4-0.4,5.9-3.2,5.2-5.2c-0.4,3.1-6.4,2.8-10.8-0.4l-3.6,0
			c-1.3,0-2.3-0.3-2.9-0.8l0.6,0.8c-2.2,1.6-4.8,2.4-6.9,2.5c0,1,0,2,0.1,2.9c1.5,0.4,3.4,0.4,5.7,0c0.4-0.1,0.7-0.1,1.1-0.2
			c0.9-0.2,1.9-0.5,3-0.9C139.4,45.3,141.1,45.8,142.6,45.9z"/>
		<path class="st2" d="M145.2,5.4c-0.3,0-0.7,0-1,0.1c-4.7,0.4-8.4,1.7-10.5,2.6c-1.3,0.6-2.3,1.8-2.6,3.2l-0.1,0.4
			c0.2-0.1,0.5-0.1,0.8-0.2c0.3-0.1,0.7-0.2,1-0.2c0.3-0.1,0.6-0.1,0.9-0.2c4-0.6,7.1-0.5,9.3-0.1v0c-0.2-2.6,2.2-5.1,2.2-5.1
			L145.2,5.4z"/>
		<path class="st2" d="M143.1,11c2.8,0.5,4.4,1.5,5.2,2c1.5,1,4.7,7.1,4.7,7.1l-0.2,0.4l11,5.9l0.4-0.7c-0.4-5.1-1-10.1-1.3-12.6
			c-0.1-0.8-0.4-1.6-0.8-2.2l0.6-1c-3.1-2-6.4-3.6-11.3-4.2c-1.4-0.2-2.9-0.3-4.6-0.3c-0.5,0-1.1,0-1.6,0l0,0.5
			C145.2,5.9,142.9,8.4,143.1,11L143.1,11z"/>
		<path class="st49" d="M146,46c-1,0.1-2.1,0.1-3.4-0.1l0,0.2c-2.6,1.3-7.9-0.1-7.9-0.1l-0.1-0.6c-0.4,0.1-0.8,0.2-1.1,0.2
			c0,0,0.3,1.2,1.4,2.3c0.9,0.9,2.5,1.8,4.9,1.6c2.3-0.1,3.8-0.5,5-1.5C145.2,47.7,145.6,47,146,46L146,46L146,46z"/>
		<path class="st49" d="M147.2,32.2c-0.6,0-1.2-0.5-1.2-1.2c0-0.6,0.5-1.1,1.2-1.1c0.6,0,1.1,0.5,1.1,1.1
			C148.3,31.7,147.8,32.2,147.2,32.2z M133.7,31.1c0,0.4-0.2,0.8-0.5,1c-0.2,0.1-0.4,0.2-0.6,0.2c-0.6,0-1.1-0.5-1.1-1.2
			c0-0.1,0-0.2,0-0.2c0.1-0.5,0.6-0.9,1.1-0.9C133.2,29.9,133.7,30.5,133.7,31.1z M144.7,50c0,0.1,0,0.1,0,0.2c-0.2,1-2.2,2.1-2.2,4
			c0,1.9,4.7,2.4,4.7,2.4v-6.3v-0.1c10.5,0,13.4-17,13.4-17h1.2h0.4l-0.4-0.2c0.9-0.8,2.1-1.3,3.4-1.3c0.9,0,1.8,0.2,2.5,0.7
			c0,0-0.1-1.6-0.3-3.9l-3.6-1.9l-11-5.9l-0.4-0.2c0,0-10.8-2.9-16.4-1.9c-1.6,0.3-2.9,0.7-4,1.2v0c-0.4,1.4-0.8,2.7-1.1,4
			c-0.2,0.6-0.3,1.2-0.5,1.9c-0.4,1.7-0.8,3.3-1.2,4.9c-0.1,0.5-0.2,0.9-0.3,1.4c-0.8,3.7-1.2,7.2-1.3,10.2c0,0.3,0,0.7,0,1
			c2.1-0.1,4.7-0.9,6.9-2.5l-0.6-0.8c0.7,0.5,1.6,0.8,2.9,0.8l3.6,0c4.4,3.2,10.4,3.5,10.8,0.4c0.7,2-0.8,4.8-5.2,5.2l0,0.1
			c-0.4,0.9-0.8,1.6-1.3,2.1V50z"/>
		<path class="st2" d="M147.2,29.9c-0.6,0-1.2,0.5-1.2,1.1c0,0.6,0.5,1.2,1.2,1.2c0.6,0,1.1-0.5,1.1-1.2
			C148.3,30.5,147.8,29.9,147.2,29.9z"/>
		<path class="st2" d="M151.5,5.4c0-1-1.6-1.8-3.6-1.8c-2,0-3.6,0.8-3.6,1.8l0,0.1c0.3,0,0.6,0,1-0.1c0.5,0,1,0,1.6,0
			c1.7,0,3.2,0.1,4.6,0.3L151.5,5.4z"/>
		<path class="st2" d="M136,70.7l13.4-9.7c-1.1,0.7-2.1,1.3-3,1.7c-4.2,1.9-7,1.1-9.6-1.3c-0.3-0.2-0.6-0.5-0.8-0.8V70.7z"/>
		<path class="st49" d="M149.4,61L136,70.7v10.1c2.7,3.8,7.5,6,12.7,6.5C155.1,88,162,86,166,80.9l0,0v0l-0.9-36.2
			c2.8,0,5.1-5.2,5.1-8c0-1.9-1-3.5-2.6-4.4c-0.7-0.4-1.6-0.7-2.5-0.7c-1.3,0-2.5,0.5-3.4,1.3l0.4,0.2c0,9.2-0.6,17.1-5.5,21.8
			C153.9,57.6,151.5,59.6,149.4,61z"/>
		<path class="st2" d="M148.3,13c-0.8-0.5-2.4-1.5-5.2-2c-2.3-0.4-5.3-0.5-9.3,0.1c-0.3,0.1-0.6,0.1-0.9,0.2c-0.4,0.1-0.7,0.1-1,0.2
			c-0.3,0.1-0.5,0.1-0.8,0.2c-7.8,1.9-7.3,5-5.9,7.1c0.7,1,1.7,2.3,2.6,3.5c1.3,1.7,2.6,3.2,2.6,3.2h0c0.1-0.6,0.3-1.3,0.5-1.9
			c0.4-1.3,0.7-2.7,1.1-4c-0.7,0.3-1.3,0.6-1.8,0.9c0.5-0.3,1.1-0.6,1.8-0.9v0c1.1-0.5,2.4-0.9,4-1.2c5.6-1,16.4,1.9,16.4,1.9
			l0.4,0.2l0.2-0.4C153,20.1,149.8,14,148.3,13z"/>
		<path class="st2" d="M163.8,26.4l3.6,1.9c-0.3-4.1-0.9-10.6-1.8-15c-0.2-1.2-1-2.3-2-2.9c-0.3-0.2-0.6-0.4-0.9-0.6l-0.6,1
			c0.5,0.6,0.7,1.4,0.8,2.2c0.3,2.6,0.9,7.5,1.3,12.6L163.8,26.4z"/>
		<path class="st2" d="M191,126.2L191,126.2L191,126.2C191,126.2,191,126.2,191,126.2z"/>
		<path class="st29" d="M217.2,116.2l-26.2,10v0C198.9,126.2,206.4,124.4,217.2,116.2z"/>
		<g>
			<line class="st6" x1="132.7" y1="56.5" x2="132.7" y2="56.5"/>
			<line class="st17" x1="145.2" y1="5.4" x2="145.2" y2="5.9"/>
			<line class="st6" x1="166" y1="81" x2="166" y2="80.9"/>
			<path class="st6" d="M161.8,32.9c0.9-0.8,2.1-1.3,3.4-1.3c0.9,0,1.8,0.2,2.5,0.7c1.5,0.9,2.6,2.5,2.6,4.4c0,2.8-2.3,8-5.1,8"/>
			<line class="st6" x1="149.4" y1="61" x2="136" y2="70.7"/>
			<path class="st6" d="M136,60.6v10.1v10.1l0,0l-17.5,4.6c-6.6,1.7-19.2,6.8-25.4,10.3c-7.6,4.3-16.1,24-16.1,24"/>
			<line class="st6" x1="217.3" y1="116.8" x2="222.9" y2="151.2"/>
			<path class="st6" d="M165.2,44.7l0.9,36.2v0c0,0,13.4,4.8,18.1,6.5c7,2.7,13.9,6.8,21.8,10.8c3.6,1.8,6.3,4.9,7.8,8.7l3.5,9.3"/>
			<path class="st6" d="M129,31.7C129,31.7,128.9,31.7,129,31.7c-2.2,0.7-3.6,2.7-3.6,5c0,1.7,0.6,4.4,2,5.3"/>
			<path class="st50" d="M154.3,24.3c-8.4-1.5-11.2-1-11.2-1"/>
			<path class="st50" d="M130.2,23.7c0.2,0,0.4-0.1,0.7-0.1c4.7-0.6,6.4-0.2,6.4-0.2"/>
			<path class="st17" d="M147.2,29.9c0.6,0,1.1,0.5,1.1,1.1c0,0.6-0.5,1.2-1.1,1.2c-0.6,0-1.2-0.5-1.2-1.2
				C146,30.5,146.5,29.9,147.2,29.9z"/>
			<path class="st17" d="M131.4,30.9c0.1-0.5,0.6-0.9,1.1-0.9c0.6,0,1.1,0.5,1.1,1.1c0,0.4-0.2,0.8-0.5,1c-0.2,0.1-0.4,0.2-0.6,0.2
				c-0.6,0-1.1-0.5-1.1-1.2C131.4,31,131.4,30.9,131.4,30.9z"/>
			<path class="st17" d="M139.1,27.5c0,0-1.5,2.5-3.7,5.2c-0.5,0.6-1.1,1.2-1.6,1.8c-1.5,1.5-1.6,3.9,0.2,5.2
				c0.7,0.5,1.6,0.8,2.9,0.8l3.6,0h1.2c1,0,1.9-0.8,1.9-1.9c0-0.9-0.9-2-1.6-2"/>
			<path class="st6" d="M164.9,33.6c2.4,0.3,4.2,2.9,2.9,5.8"/>
			<path class="st6" d="M160.6,33.1c0,0-2.9,17-13.4,17v0.1v6.3c0,0-4.7-0.4-4.7-2.4c0-1.8,2-2.9,2.2-4c0-0.1,0-0.1,0-0.2v-1.8v-0.1
				"/>
			<path class="st6" d="M132.7,56.5c1.2-0.2,4.3-0.7,4.3-2.3c0-2-2.2-3.1-2.2-4.2v-1.9"/>
			<path class="st6" d="M128.3,49.2c1.2,0.6,2.5,0.9,4,0.9v5.6"/>
			<path class="st6" d="M146.4,62.6c0.9-0.4,1.9-1,3-1.7c2.1-1.4,4.5-3.4,7.3-6.1c4.9-4.7,5.5-12.6,5.5-21.8h-0.4h-1.2"/>
			<path class="st5" d="M136.8,61.4c2.6,2.4,5.5,3.2,9.6,1.3"/>
			<path class="st6" d="M132,19.6c-0.4,1.4-0.8,2.7-1.1,4c-0.2,0.6-0.3,1.2-0.5,1.9c-0.4,1.7-0.8,3.3-1.2,4.9
				c-0.1,0.5-0.2,0.9-0.3,1.4c-0.8,3.7-1.2,7.2-1.3,10.2c0,0.3,0,0.7,0,1c0,1,0,2,0.1,2.9c0.1,1.2,0.3,2.4,0.6,3.4
				c0.4,1.5,1.1,2.9,1.9,4c0.7,0.9,1.3,1.8,1.9,2.6c0.2,0.2,0.3,0.4,0.5,0.7c1.1,1.5,2.2,2.9,3.3,4c0.3,0.3,0.6,0.6,0.8,0.8"/>
			<path class="st6" d="M133.9,13.3c-0.7,2.1-1.3,4.2-1.9,6.3"/>
			<path class="st17" d="M140.4,40.4c4.4,3.2,10.4,3.5,10.8,0.4c0.7,2-0.8,4.8-5.2,5.2h0c-1,0.1-2.1,0.1-3.4-0.1
				c-1.5-0.2-3.2-0.6-5.1-1.3"/>
			<path class="st17" d="M134.5,40.4C134.5,40.4,134.5,40.4,134.5,40.4c-2.3,1.6-4.9,2.5-6.9,2.6c-2.1,0.1-3.7-0.6-3.9-2.1
				c-0.6,1.8,0.5,4.2,4,5c1.5,0.4,3.4,0.4,5.7,0c0.4-0.1,0.7-0.1,1.1-0.2c0.9-0.2,1.9-0.5,3-0.9"/>
			<path class="st17" d="M146,46.1c-0.4,0.9-0.8,1.6-1.3,2.1c-1.1,1.1-2.6,1.4-5,1.5c-2.4,0.1-4-0.7-4.9-1.6
				c-1.1-1.1-1.4-2.3-1.4-2.3"/>
			<path class="st17" d="M142.6,46.2c-2.6,1.3-7.9-0.1-7.9-0.1"/>
			<path class="st17" d="M167.7,32.2c0,0-0.1-1.6-0.3-3.9c-0.3-4.1-0.9-10.6-1.8-15c-0.2-1.2-1-2.3-2-2.9c-0.3-0.2-0.6-0.4-0.9-0.6
				c-3.1-2-6.4-3.6-11.3-4.2c-1.4-0.2-2.9-0.3-4.6-0.3c-0.5,0-1.1,0-1.6,0c-0.3,0-0.7,0-1,0.1c-4.7,0.4-8.4,1.7-10.5,2.6
				c-1.3,0.6-2.3,1.8-2.6,3.2l-0.1,0.4l-0.1,0.6"/>
			<path class="st17" d="M132,19.6c-2.8,1.2-4,2.6-4,2.6"/>
			<line class="st6" x1="132" y1="19.6" x2="132" y2="19.6"/>
			<path class="st17" d="M167.4,28.3l-3.6-1.9l-11-5.9l-0.4-0.2c0,0-10.8-2.9-16.4-1.9c-1.6,0.3-2.9,0.7-4,1.2"/>
			<path class="st51" d="M131.8,11.5c0.3-0.1,0.7-0.2,1-0.2c0.3-0.1,0.6-0.1,0.9-0.2c4-0.6,7.1-0.5,9.3-0.1c2.8,0.5,4.4,1.5,5.2,2
				c1.5,1,4.7,7.1,4.7,7.1"/>
			<path class="st17" d="M130.4,25.5c0,0-1.2-1.5-2.6-3.2c-1-1.2-2-2.5-2.6-3.5c-1.5-2.2-1.9-5.3,5.9-7.1c0.2-0.1,0.5-0.1,0.8-0.2"
				/>
			<path class="st17" d="M151.5,5.4c0-1-1.6-1.8-3.6-1.8c-2,0-3.6,0.8-3.6,1.8"/>
			<path class="st51" d="M164.2,25.7c-0.4-5.1-1-10.1-1.3-12.6c-0.1-0.8-0.4-1.6-0.8-2.2c-0.1-0.1-0.1-0.2-0.2-0.3"/>
			<path class="st51" d="M143.1,11c-0.2-2.6,2.2-5.1,2.2-5.1"/>
			<path class="st6" d="M136,80.8c2.7,3.8,7.5,6,12.7,6.5C155.1,88,162,86,166,80.9l0,0"/>
			<polyline class="st6" points="148.7,87.4 148.7,146.4 148.7,151.2 			"/>
			<polygon class="st6" points="115.6,105.7 115.6,120 126.2,125.3 136.8,120.1 136.8,105.7 			"/>
			<polyline class="st6" points="191,126.2 191,126.4 194.5,147.3 195,151.4 			"/>
			<polyline class="st6" points="97.3,151.2 99.3,133 102.2,115.5 			"/>
			<path class="st6" d="M38.7,85.5l3.7,10c0,0,10.5,36.2,16.1,55.7"/>
			<path class="st6" d="M82.2,130.7c2.1,0.8,4.5,1.5,7.1,2c3.3,0.6,6.8,0.8,10,0.3"/>
			<path class="st6" d="M191,126.2C191,126.2,191,126.2,191,126.2c7.9,0,15.4-1.8,26.2-10"/>
			<line class="st6" x1="191" y1="126.2" x2="191" y2="126.2"/>
			<path class="st11" d="M26.3,75C26.3,75,26.3,75,26.3,75c-0.1-0.3-0.2-0.6-0.2-0.9c0-0.7,0.3-1.3,0.7-1.7c0.4-0.4,1-0.7,1.7-0.7
				H41c3.5,0,10.9,3,14.9,8.4"/>
			<path class="st11" d="M35.9,75c-1.9,0-1.9,0-1.9,0h-7.8h-8.4c-1.3,0-2.4,1.1-2.4,2.4c0,0.1,0,0.1,0,0.2"/>
			<path class="st11" d="M32.2,77H17c-0.6,0-1.1,0.2-1.6,0.6c-0.5,0.4-0.9,1.1-0.9,1.9c0,1.3,0.8,2.4,2.5,2.4c0.1,0,0.1,0,0.2,0"/>
			<path class="st11" d="M31.8,78.7H19.5c-1.3,0-2.4,1.1-2.4,2.4c0,0.3,0,0.5,0.1,0.8c0.1,0.4,0.3,0.7,0.6,0.9
				c0.4,0.4,1,0.7,1.7,0.7h2"/>
			<path class="st11" d="M33.6,80.6h-9.7c-1.3,0-2.4,1.1-2.4,2.4c0,0.2,0,0.3,0,0.5c0.1,0.5,0.3,0.9,0.7,1.2c0.4,0.4,1,0.7,1.7,0.7
				h14.8"/>
			<line class="st11" x1="55.9" y1="80" x2="55.9" y2="80"/>
			<path class="st6" d="M76.9,119.7L61.1,87.4c0,0-2.2-4.1-5.2-7.4"/>
			<polyline class="st11" points="89.3,132.7 91.4,151.2 82.2,130.7 80.5,127 76.9,119.7 			"/>
		</g>
		<path class="st2" d="M55.7,63H10.3c-4.3,0-7.9-3.5-7.9-7.9V9.7c0-4.3,3.5-7.9,7.9-7.9h45.4c4.3,0,7.9,3.5,7.9,7.9v45.4
			C63.6,59.4,60.1,63,55.7,63z"/>
		<path class="st7" d="M40.7,23.4c-1.9-0.1-3.7,0.4-5.4,1.4c-1.3,0.7-1.3,0.7-1.3-0.8c0-0.5,0-1,0-1.5c0-1.9,0-3.8,0-5.6
			c0-1.4-0.2-1.6-1.6-1.7c-0.4,0-0.8,0-1.2,0c-1.3,0-1.4,0.1-1.4,1.4c0,2.8,0,5.6,0,8.4h0c0,2.8,0,5.6,0,8.4c0,0.5-0.1,1,0.4,1.4
			c0.9,0.7,1.8,1.4,2.9,1.9c0.6,0.3,0.9,0,1-0.6c0.1-0.6,0-1.1,0-1.7c-0.1-1.4,0.4-2.6,1.1-3.7c2.5-3.9,7.9-4.1,10.6-0.4
			c1.5,2,1.7,4.2,1.3,6.5c-0.3,1.7-1.2,3.1-2.6,4.1c-2.4,1.7-5.1,1.8-7.8,1.1c-2.6-0.7-4.8-2.2-7-3.7c-1.6-1.1-3.1-2.4-4.7-3.5
			c-2.7-2-5.7-2.6-8.9-1.9c-3.5,0.8-6,2.9-7.4,6.2c-0.4,1-0.2,1.4,0.9,1.4c0.9,0,1.8,0,2.7,0c0.6,0,1-0.2,1.3-0.8
			c0.1-0.2,0.2-0.4,0.3-0.5c1.2-2,3.3-2.8,5.6-2.2c1,0.3,1.9,0.7,2.8,1.2c2,1.3,3.8,2.6,5.7,4c3.8,2.8,7.8,4.9,12.7,4.4
			c3.4-0.3,6.1-1.5,8.3-4.1c1.7-2,2.5-4.4,2.5-7.1c0-2.4-0.4-4.6-1.6-6.7C47.8,25.4,44.7,23.6,40.7,23.4"/>
		<line class="st6" x1="233.6" y1="151.2" x2="6.3" y2="151.2"/>
	</g>
</g>
</svg>
