<?xml version="1.0" encoding="UTF-8" standalone="no"?>
<!DOCTYPE svg PUBLIC "-//W3C//DTD SVG 1.1//EN" "http://www.w3.org/Graphics/SVG/1.1/DTD/svg11.dtd">
<svg width="100%" height="100%" viewBox="0 0 1902 1021" version="1.1" xmlns="http://www.w3.org/2000/svg" xmlns:xlink="http://www.w3.org/1999/xlink" xml:space="preserve" xmlns:serif="http://www.serif.com/" style="fill-rule:evenodd;clip-rule:evenodd;stroke-linejoin:round;stroke-miterlimit:2;">
    <g transform="matrix(1,0,0,1,-599.027641,-690.427874)">
        <g id="Layer-1" serif:id="Layer 1" transform="matrix(4.166667,0,0,4.166667,0,0)">
            <g transform="matrix(1,0,0,1,438.5742,410.6112)">
                <path d="M0,-1.621C0.1,-1.08 0.205,-0.549 0.3,0C0.3,-0.437 0.185,-1 0,-1.621" style="fill:rgb(1,1,1);fill-rule:nonzero;"/>
            </g>
            <g transform="matrix(1,0,0,1,475.7082,270.4677)">
                <path d="M0,19.875C2.424,19.201 4.834,18.615 6.542,18.217C0.909,26.454 -4.399,30.609 -9.321,30.451C-13.369,30.355 -17.238,27.201 -20.821,21.076C-25.553,12.993 -31.981,-1.291 -35.342,-23.965L-36.967,-24.379C-42.311,-24.729 -49.994,-18.562 -52.188,-16.496C-55.16,-13.699 -47.342,-33.59 -33.809,-39.222C-41.449,-33.76 -48.538,-21.53 -45.675,-24.154C-43.034,-26.575 -40.531,-28.327 -38.141,-29.588C-38.141,-29.59 -38.142,-29.594 -38.142,-29.597L-38.132,-29.592C-19.983,-39.151 -8.454,-19.983 5.523,-44.098C7.877,-42.421 8.946,-35.267 7.629,-30.181C11.207,-33.194 13.374,-39.599 11.805,-44.477C15.407,-43.532 34.563,-21.329 8.946,-6.072C14.974,-5.884 22.734,-11.305 24.391,-11.912C15.538,12.197 1.15,18.601 0,19.875M84.662,100.816C84.997,83.394 76.692,76.296 70.868,71.517C65.31,66.957 60.489,57.53 59.479,55.809C58.093,53.443 56.42,51.066 53.204,47.844C60.856,54.353 66.247,51.411 70.63,52.411C82.59,55.142 69.406,66.349 69.217,55.142C63.736,69.644 90.407,64.748 78.258,50.758C101.189,50.947 85.368,40.592 124.31,32.916C92.149,30.562 86.922,57.967 51.324,27.029C83.956,40.45 75.641,7.112 108.395,21.238C79.859,2.31 78.447,17.001 58.812,13.045C91.443,3.156 59.801,-12.241 89.747,-35.267C64.604,-18.88 78.447,-1.505 58.812,8.102C58.812,8.102 65.122,-2.34 56.269,-3C53.858,-3.179 51.324,-0.985 52.832,1.039C52.597,-1.079 58.758,-0.652 54.435,4.005C52.356,6.241 44.365,8.689 41.86,0.191C39.437,-8.037 40.784,-15.319 47.369,-28.768C64.038,-62.813 50.759,-108.723 8.946,-90.642C-2.778,-122.426 -70.302,-92.336 -92.057,-80.188C-99.32,-76.131 -109.757,-68.03 -113.425,-61.133C-115.779,-56.707 -114.149,-50.993 -107.61,-52.857C-103.081,-54.148 -103.214,-60.788 -109.525,-58.434C-106.7,-66.156 -93.893,-56.313 -102.557,-48.991C-109.53,-43.098 -118.472,-48.356 -120.176,-53.664C-122.085,-59.614 -116.117,-69.411 -128.926,-80C-135.574,-85.497 -154.991,-85.368 -159.512,-72.277C-162.248,-64.35 -157.555,-52.495 -144.182,-60.694C-161.604,-60.694 -142.299,-78.63 -138.437,-63.048C-136.719,-56.113 -141.749,-41.793 -165.673,-45.659C-194.658,-54.944 -181.002,-90.422 -160.383,-94.385C-179.637,-91.011 -196.052,-63.555 -176.124,-48.044C-173.314,-45.468 -172.037,-43.541 -171.554,-42.123C-189.657,-39.547 -200.047,-40.434 -215.642,-49.345C-226.827,-55.735 -232.533,-73.314 -228.33,-85.595C-225.577,-92.192 -221.91,-97.488 -214.825,-100.131C-208.078,-102.148 -200.704,-102.602 -196.76,-96.432C-192.477,-90.887 -196.245,-83.636 -202.1,-82.287C-195.718,-83.842 -190.704,-90.216 -194.635,-96.596C-198.813,-103.379 -208.196,-104.635 -216.696,-101.328C-224.428,-98.32 -227.94,-92.815 -231.011,-85.507C-235.725,-71.916 -229.693,-52.673 -216.508,-44.447C-203.081,-36.07 -192.407,-33.49 -181.011,-34.121C-195.537,-27.991 -228.127,-20.271 -275.838,-43.178C-247.791,-26.059 -224.984,-24.342 -224.984,-24.342C-275.838,-24.342 -285.443,-39.975 -311.624,-29.616C-321.108,-25.864 -329.706,-18.88 -331.401,-10.403C-334.374,4.465 -324.62,13.328 -313.508,8.807C-307.016,6.167 -307.763,-5.319 -317.087,-1.363C-301.453,2.216 -326.315,13.517 -323.771,-3.086C-322.621,-10.594 -312.544,-12.645 -308.046,-12.1C-289.022,-9.791 -275.838,12.573 -275.838,12.573C-275.838,12.573 -276.183,0.802 -268.659,2.105C-256.061,4.287 -267.566,17.011 -269.263,8.157C-271.789,17.095 -255.685,16.229 -259.451,2.456C-256.226,5.286 -254.666,13.802 -262.378,18C-271.419,22.921 -279.228,16.436 -286.574,19.897C-257.897,21.944 -257.46,43.822 -224.984,37.201C-210.434,34.235 -198.285,22.651 -195.036,18.979C-230.352,72.375 -233.742,19.926 -305.785,59.097C-250.411,34.235 -254.366,62.675 -208.785,42.709C-221.612,55.884 -210.728,80.492 -189.574,76.802C-181.964,75.475 -176.767,72.33 -173.941,66.82C-171.041,61.163 -175.637,53.118 -182.04,54.953C-179.026,55.379 -174.069,58.963 -179.003,63.404C-180.105,64.398 -182.423,65.773 -184.865,65.383C-188.396,64.817 -190.109,61.662 -190.092,57.613C-190.063,51.15 -182.972,43.033 -170.245,47.442C-157.429,51.882 -155.106,69.928 -169.284,76.451C-183.957,83.204 -181.882,94.257 -178.085,101.76C-178.085,67.195 -137.872,95.355 -145.029,58.816C-125.346,98.839 -84.696,75.476 -78.071,56.46L-78.071,56.932C-78.071,65.69 -86.547,76.708 -86.547,76.708C-79.39,72.659 -60.366,48.268 -49.537,39.415C-35.219,27.71 -25.706,39.83 -27.023,45.166C-30.111,57.686 -50.289,52.128 -62.345,58.816C-76.011,66.397 -76.541,78.172 -75.568,85.174C-74.54,92.576 -67.599,99.52 -65.216,104.441C-54.48,126.62 -85.559,117.337 -69.03,107.408C-89.09,106.419 -82.309,142.301 -57.871,128.315C-56.067,126.993 -51.92,133.484 -50.723,137.502C-54.559,116.65 -61.674,100.579 -65.499,87.633C-69.338,74.636 -65.499,71.245 -47.135,64.183C-37.546,60.494 -26.843,56.31 -22.132,53.446C-19.397,51.783 -14.292,49.462 -16.685,31.183C-14.376,32.883 -11.945,33.779 -9.402,33.839C-9.31,33.842 -9.215,33.844 -9.121,33.844C-5.447,33.844 -1.702,32.11 2.079,28.698C-28.242,86.068 48.69,108.092 23.637,139.333C63.482,96.955 20.998,107.389 39.082,75.107C34.186,100.816 46.051,106.337 55.847,107.572C76.188,110.14 82.026,86.407 65.826,88.668C75.172,91.023 72.179,97.613 68.17,99.293C65.159,100.556 61.206,99.272 59.598,96.745C53.864,87.738 63.944,79.062 61.993,71.151C80.895,78.308 81.742,90.646 84.662,100.816" style="fill:rgb(1,1,1);fill-rule:nonzero;"/>
            </g>
        </g>
    </g>
</svg>
