<svg xmlns="http://www.w3.org/2000/svg" style="display:none">
  <symbol id="svg-access_restriction" viewBox="0 0 64 64">
<path d="M25.5 46.5h12v6h-12v-6z" fill="#605F5C"></path>
<path d="M22.5 52.5h18v2h-18v-2zM56.5 9.5h-9.6l-29.8 37h39.4c1.5.1 2.9-1 3-2.6V12.1c-.1-1.5-1.4-2.7-3-2.6z" fill="#7A7772"></path>
<path d="M7.5 13.1h37l2.9-3.6h-40c-1.4-.1-2.7.9-2.9 2.4v32c0 1.5 1.2 2.7 2.7 2.6h10.5l4.4-6H7.5V13.1z" fill="#A09D96"></path>
<path d="M56.5 11.5H45.8l-23.7 29h34.4v-29z" fill="#D8D5E0"></path>
<path d="M7.5 11.5v29h14.6l23.7-29H7.5z" fill="#E8E8E8"></path>
<circle cx="32.4" cy="43.5" fill="#605F5C" r="1.3"></circle>
<g fill="#F48055">
<path d="M23.3 19.8l2.6-2.6 16.2 16.2-2.6 2.6-16.2-16.2z"></path>
<path d="M23.3 33.3l16.2-16.2 2.6 2.6-16.2 16.2-2.6-2.6z"></path>
</g>
</symbol>
  <symbol id="svg-automatic_marketing" viewBox="0 0 64 64">
<path d="M19.5 60.4c2.2.8 4.5 1.3 6.8 1.4 3.7.2 7.4-.9 10.3-3.2 1-.8 1.9-1.6 2.8-2.6.7-.9 2.7-3.8 2.7-3.8l7.4-13.6-2.4-3.1-11.9 17.1-6.9 2-9.6-.7-5.7-3.6s-2.7-2.8-3.9-2.9c-.5 0-1.4-.1-1.5.4-.4 1.1 1.4 3.5 1.9 4.6 2.6 5.6 10 8 10 8z" fill="#AB2935"></path>
<path d="M24.3 24.9L26 28s-6.5 11.3-8.3 15.3c-.2.5-.3 1-.4 1.6 0 1.1.1 2.2.3 3.3l-.7.9-5.3-2.7 1.2-10.9 4.2-7.1 4.1-3.8 3.2.3z" fill="#AB2935"></path>
<path d="M44.9 22.9l-5.5 9.4 7.7 3.3 5.2-9.3-7.4-3.4z" fill="#E8E8E8"></path>
<path d="M47.2 35.5l2.4 3.1 5-9.4-2.2-3-5.2 9.3zM29.2 16.2l-5 8.7L26 28l5.2-9.1-2-2.7z" fill="#AAA"></path>
<path d="M21.3 12.6l-5.1 8.9 7.9 3.4 5.1-8.7-7.9-3.6z" fill="#E8E8E8"></path>
<path d="M33.5 2.2L27 8.7l2.7.3-2 5.2L34.5 7l-2.5.3 1.5-5.1z" fill="#2FC5EE"></path>
<g fill="#E06543">
<path d="M56.7 12.2l-6.5 6.6 2.7.2-2 5.2 6.8-7.1-2.6.2 1.6-5.1zM16.2 21.5l-5.8 10.3s-2.1 3.5-2.7 4.7c-.3.6-.6 1.2-.8 1.9-.2.6-.3 1.1-.4 1.7-.1.8-.2 1.5-.2 2.3 0 .9 0 1.9.2 2.8.3 1.1.6 2.3 1 3.4.5 1.2 1.1 2.3 1.9 3.4.5.5 1 1.1 1.6 1.6 0 0 3.6 2.5 4.9 3.1 1.7.8 3.4 1.4 5.1 1.9 2.1.4 4.3.5 6.4.1.8-.1 1.6-.3 2.4-.6 1.3-.5 2.5-1.1 3.6-1.8 1.6-1.1 3.1-2.4 4.4-3.8l1.8-2.6 7.6-14.3-7.8-3.3s-5.6 10.5-7.7 13.9c-.3.5-.7 1.1-1.1 1.5-1 1.1-2.3 1.9-3.8 2.4-1 .1-2 .1-3 0-1.6-.3-6.1-2.6-6.1-2.6-.7-.5-1.3-1.1-1.9-1.8-.3-.7-.6-1.5-.6-2.3-.1-.7-.1-1.3 0-2 .1-.6.3-1.1.6-1.6C17.5 36 24.2 25 24.2 25l-8-3.5z"></path>
</g>
</symbol>
  <symbol id="svg-fiscalization" viewBox="0 0 64 64">
<path d="M57.5 54.6c0 1.6-1.3 2.8-2.8 2.8H9.4c-1.6 0-2.8-1.3-2.8-2.8V31.8c.1-1.6 1.3-2.9 2.9-3.3h45c1.6.5 3 1.7 3 3.3v22.8z" fill="#C2BFB6"></path>
<path d="M51.5 40.5c0 .2-16.7 17-16.8 16.9H9.4c-1.6 0-2.8-1.3-2.8-2.8V31.8c0-1.6 1.3-2.8 2.8-2.8h2.8c0 .1-.1 9.8-.1 11.4l39.4.1z" fill="#A29E97"></path>
<path d="M16.1 49.8c0 1.1-.9 2.1-2.1 2.1s-2.1-.9-2.1-2.1.9-2.1 2.1-2.1c1.1.1 2.1 1 2.1 2.1z" fill="#BFD56F"></path>
<path d="M22.3 49.8c0 1.1-.9 2.1-2.1 2.1-1.1 0-2.1-.9-2.1-2.1s.9-2.1 2.1-2.1c1.2.1 2.1 1 2.1 2.1zM28.4 49.8c0 1.1-.9 2.1-2.1 2.1s-2.1-.9-2.1-2.1.9-2.1 2.1-2.1c1.1.1 2.1 1 2.1 2.1z" fill="#CA3C45"></path>
<path d="M51.5 40.5H11.6l.1-31.1c0-1.6 1.2-2.8 2.8-2.8h25.9l11 11.1.1 22.8z" fill="#F2C550"></path>
<path d="M41.5 18.5l9.9 10.1v-11l-9-9" fill="#BB9840"></path>
<g fill="#F7E3A6">
<path d="M21.5 16.5h19.9v2.9H21.5v-2.9zM21.6 23.6h19.9v2.9H21.6v-2.9zM21.6 30.6h19.9v2.9H21.6v-2.9z"></path>
</g>
<path d="M51.5 17.5h-10v-11l10 11z" fill="#FDE9B5"></path>
<path d="M9.5 40.5h45v3h-45v-3z" fill="#585753"></path>
</symbol>
  <symbol id="svg-gift_cards" viewBox="0 0 64 64">
<path d="M57.8 29.7c.6-1.8 2.5-2.9 4.3-2.3l.9-2.7-52.6-16-.8 2.7c1.8.7 2.7 2.7 2 4.5-.6 1.6-2.3 2.6-4 2.2l-.9 2.7c1.8.7 2.7 2.7 2 4.5-.6 1.6-2.3 2.6-4 2.2l-1 3.3c1.8.5 2.9 2.4 2.4 4.3-.5 1.8-2.4 2.9-4.3 2.4-.1 0-.2 0-.2-.1l-.6 2 52.6 16.1.6-2c-1.9-.4-3-2.3-2.6-4.2.4-1.9 2.3-3 4.2-2.6.2 0 .3.1.4.1l1-3.3c-1.9-.5-3-2.4-2.5-4.2.5-1.9 2.4-3 4.2-2.5.1 0 .2 0 .3.1l.8-2.7c-1.8-.7-2.8-2.7-2.2-4.5z" fill="#FFD861"></path>
<path d="M47.1 46.2c-.3 1.1-.8 1.9-1.9 1.6L11.9 37.6c-1.1-.3-1.7-1.5-1.4-2.6l5.1-16.6c.3-1.1 1.5-1.7 2.6-1.4l33.3 10.2c1.1.3 1.2.7.9 1.7l-5.3 17.3z" fill="none" stroke="#FFC000" stroke-linecap="round" stroke-linejoin="round" stroke-width="3"></path>
<path d="M26 36.5l.4-.7c.4-.8.9-1.5 1.3-2.3.2-.3.2-.6 0-.9L26 29.8c-.1-.1-.1-.2-.1-.3s.2-.1.3 0l2.1.4 1.1.2c.3.1.7 0 .9-.3.5-.5 1-1.1 1.5-1.7l.7-.8.1-.1c.1-.1.3-.1.3.1s0 .4.1.5l.3 2.9c0 .4.3.7.6.8l1.8.7 1.2.5.1.1c.1 0 .1.1.1.2l-.1.1-.2.1c-.9.4-1.9.9-2.8 1.3-.4.2-.7.6-.7 1-.1 1-.2 2.1-.3 3.1 0 .2-.2.2-.3.1l-.5-.5-1.9-2c-.2-.2-.6-.3-.9-.3l-3.1.7h-.2c-.1.2-.2.1-.1-.1z" fill="#FFC000"></path>
</symbol>
  <symbol id="svg-google_calendar" viewBox="0 0 64 64">
<path d="M20.4 9.1c.4-.1.8-.1 1.1.1.5.2.9.7 1 1.2.1.4 0 .8-.1 1.1-.4.8-1.2 1.1-2 .9-.8-.2-1.4-.9-1.4-1.7 0-.7.6-1.4 1.4-1.6m22.4 0c.4-.1.8 0 1.1.1.6.3 1 .8 1 1.5 0 .5-.2 1-.5 1.3-.7.7-1.8.7-2.4 0-.2-.2-.3-.3-.4-.5-.1-.3-.2-.7-.1-1.1.1-.6.6-1.1 1.3-1.3m-2.3 26.5h2.7v10.5h-2.7V35.6" fill="#FFF"></path>
<path d="M11.9 7.6c.6-.2 1.2-.3 1.8-.3h37.1c1.4 0 2.6.8 3.2 2.1.2.5.3 1 .3 1.6v3.6c-.4-.2-.8-.2-1.3-.2H11c-.4 0-.9.1-1.3.2v-3.8c.1-1.4.9-2.6 2.2-3.2m8.5 1.5c-.9.2-1.5 1.2-1.3 2.1.2.6.7 1.2 1.3 1.3.8.2 1.6-.2 2-.9.2-.4.2-.7.1-1.1-.1-.5-.5-1-1-1.2-.3-.2-.7-.2-1.1-.2m22.4 0c-.7.2-1.2.7-1.3 1.3-.1.4 0 .7.1 1.1.3.6.9 1 1.6 1 .4 0 .9-.2 1.2-.5.3-.4.5-.8.5-1.3 0-.6-.4-1.2-1-1.5-.3-.1-.7-.2-1.1-.1M42.6 25c.2-.1.4-.1.6-.1v10.6h-2.7v-7.3L35.2 30v-2.4c2.5-.9 4.9-1.7 7.4-2.6M21 26.3c1.1-.8 2.5-1.3 3.9-1.3 1.4-.1 2.8.2 4 .9 1 .5 1.7 1.4 2.1 2.4.4 1 .5 2.1.4 3.2-.3 1.7-1.5 3.1-3.2 3.8l.6.3h-5.9v-1.2c1.4.1 2.7 0 4-.5 1-.4 1.8-1.4 1.9-2.5.2-1.1 0-2.2-.6-3.1-.5-.7-1.3-1.1-2.1-1.2-1.1-.2-2.3 0-3.3.6-.9.7-1.4 1.8-1.4 2.9h-2.6c0-.5.1-.9.2-1.4.3-1.2 1-2.3 2-3" fill="#C7C7C7"></path>
<path d="M9.7 14.6c.4-.2.9-.2 1.3-.2h42c.5 0 .9.1 1.3.2 1.2.4 2.1 1.5 2.3 2.9-.2-.9-.8-1.7-1.6-2.2-.6-.4-1.2-.6-1.9-.6H10.9c-1.1 0-2.1.4-2.8 1.3-.3.4-.5.8-.7 1.2.3-1.3 1.1-2.2 2.3-2.6" fill="#4483EF"></path>
<path d="M40.5 35.5V46h2.6V35.5H54.4c.4 5.5.7 11.1 1.1 16.6.1.6.1 1.3-.1 1.9-.2.2-.3.4-.4.6-.6 1-1.8 1.7-3 1.7H11.2c-.9-.2-1.7-.9-2.2-1.7-.1-.2-.2-.4-.3-.5-.1-.8-.1-1.7 0-2.5.4-5.3.7-10.7 1.1-16H23v.8c1.4-.1 2.8 0 4.2.4.9.3 1.6 1.1 1.9 2 .3 1 .3 2.1-.1 3.2-.4.9-1.1 1.7-2.1 1.9-1.2.4-2.4.3-3.6-.2-.9-.4-1.6-1.1-1.9-2-.1-.4-.2-.8-.2-1.2h-2.5c-.1 2.3 1.4 4.4 3.6 5.2 1.4.5 2.9.7 4.3.4 1.5-.2 2.8-.9 3.8-2 .9-1 1.3-2.3 1.4-3.6.1-1.3-.2-2.5-1-3.5-.5-.6-1-1-1.7-1.4h10.3c.3 0 .7 0 1.1-.1" fill="#4285F4"></path>
<path d="M8.1 15.9c.7-.8 1.7-1.3 2.8-1.3h42.2c.7 0 1.4.2 1.9.6.8.5 1.3 1.3 1.6 2.2.1.3.1.7 0 1-.8 5.7-1.5 11.4-2.3 17.2H43.2V25c-.2 0-.4 0-.6.1-2.4.9-4.9 1.7-7.3 2.6V30l5.3-1.8v7.3H29l-.6-.3c1.6-.7 2.8-2.2 3.1-3.9.1-1.1 0-2.2-.4-3.2s-1.2-1.9-2.1-2.4c-1.2-.7-2.6-1-4-.9-1.4.1-2.7.5-3.8 1.4-1 .7-1.7 1.8-2 3-.1.5-.2.9-.2 1.4h2.6c0-1.1.5-2.2 1.4-2.9 1-.6 2.1-.8 3.3-.6.8.1 1.6.5 2.2 1.1.6.9.8 2 .6 3.1-.2 1.1-.9 2.1-1.9 2.5-1.3.4-2.6.6-4 .5v1.2H9.7L7.4 18.7c-.1-.5-.1-1.1 0-1.6.2-.4.4-.8.7-1.2m.5 38.2c.1.2.2.4.3.5.5.8 1.3 1.5 2.2 1.7.4.1.8.1 1.2.1H52c1.2 0 2.4-.6 3-1.7.1-.2.2-.4.4-.6-.3 1.1-1.2 2.1-2.3 2.4-.6.2-1.3.2-1.9.2H12.5c-.5 0-1 0-1.5-.2-1.2-.3-2.1-1.2-2.4-2.4" fill="#3664D0"></path>
</symbol>
  <symbol id="svg-lumo" viewBox="0 0 64 64">
<path d="M33.8 53.5c7.1-4.9 10.9-25 3.3-34.3s-19-11.9-25.6-6.4c-7.1 5.8-5.9 17.3 1.6 26.6S30.3 56 33.8 53.5z" fill="#ED6E73"></path>
<path d="M30.2 53.5c-7.1-4.9-10.9-25-3.3-34.3s19-11.9 25.6-6.4c7.2 5.8 5.9 17.3-1.6 26.6S33.7 56 30.2 53.5z" fill="#EA5455"></path>
</symbol>
  <symbol id="svg-resources" viewBox="0 0 64 64">
<path d="M61.4 41.1c1.3.9-.2 1.8-1.3 2.5L34.4 60c-1.1.7-2.5 1.1-4.8-.6L3.1 43.2c-1.3-.9-1.3-1.7-.2-2.4l28.3-17.2c1.3-1 1.9-.4 3.3.7l26.9 16.8z" fill="#DB587A"></path>
<path d="M34.4 55.1l24.5-15.6-24.5-15.1c-1.4-1.1-2-1.6-3.3-.7l-26 15.8 24.5 15c2.3 1.8 3.7 1.3 4.8.6z" fill="#9A3E56"></path>
<path d="M61.4 31.3l-2.6-1.6-24.4 15.6c-1.1.7-2.5 1.1-4.8-.6l-24.5-15L2.9 31c-1.1.7-1 1.5.2 2.4l26.4 16.1c2.4 1.8 3.7 1.3 4.8.6L60 33.8c1.2-.7 2.7-1.5 1.4-2.5z" fill="#6BB96F"></path>
<path d="M34.4 45.3l24.5-15.6-24.5-15.2c-1.4-1.1-2-1.6-3.3-.7l-26 15.9 24.5 15c2.3 1.7 3.7 1.3 4.8.6z" fill="#468E4E"></path>
<path d="M61.4 21.4c1.3 1-.2 1.7-1.3 2.4L34.4 40.2c-1.1.7-2.5 1.1-4.8-.6L3.1 23.4c-1.3-.9-1.3-1.6-.2-2.4L31 4c1.3-.9 1.9-.9 3.3.3l27.1 17.1z" fill="#8BC6EE"></path>
</symbol>
</svg>
