<svg xmlns="http://www.w3.org/2000/svg">
  <defs>
    <linearGradient id="settings-billing-gradient" gradientUnits="userSpaceOnUse" x1="7.904" y1="10.169" x2="55.804" y2="58.069">
      <stop offset="0" stop-color="#fb614d" />
      <stop offset="1" stop-color="#fb9b52" />
    </linearGradient>
  </defs>
  <symbol id="svg-work_schedule" viewBox="0 0 64 64">
    <path d="M54.9 59.5H9.1c-.6 0-1.1-.5-1.1-1.1V5.6c0-.6.5-1.1 1.1-1.1H55c.5 0 1 .5 1 1.1v52.9c0 .5-.5 1-1.1 1z" fill="#EAEAEA"/>
    <path d="M15 44.5h34v5H15v-5z" fill="#F45842"/>
    <path d="M15 29.5h34v5H15v-5z" fill="#1FD976"/>
    <path d="M15 16.5h34v5H15v-5z" fill="#2EA9EE"/>
    <g fill="#C2C2C2">
      <path d="M25.6 12.4l-3.5 3.5-3.5-3.5M38.6 24.4l-3.5 3.5-3.5-3.5M34.6 39.4l-3.5 3.5-3.5-3.5"/>
    </g>
  </symbol>
  <symbol id="svg-salon" viewBox="0 0 64 64">
    <path d="M9.5 29l.1 30h17V5" fill="#597B9D"/>
    <path d="M54.5 59h-28V5h27.9l.1 54z" fill="#9DBCE2"/>
    <g fill="#D5E9F0">
      <path d="M54.4 14.9l-23.9.1v-5h24l-.1 4.9zM30.5 19h24v5h-24v-5zM30.5 28h24v5h-24v-5z"/>
    </g>
    <path d="M23.5 42h-14l.1-5h13.9v5zM23.5 51H9.6l-.1-5h14v5z" fill="#8FADC5"/>
    <path d="M54.5 42l-24 .1v-5h24V42zM30.5 46h24v5h-24v-5z" fill="#D5E9F0"/>
    <path d="M26.8 59h27.7V20L26.8 59z" fill="#1D1D1B" opacity=".2"/>
  </symbol>
  <symbol id="svg-opening_hours_clock" viewBox="0 0 64 64">
    <path d="M53.2 31.9c0 12-9.7 21.8-21.8 21.8-12 0-21.8-9.7-21.8-21.8.1-12 9.9-21.8 21.9-21.8s21.7 9.8 21.7 21.8z" fill="#FCF9F7"/>
    <path d="M51.9 31.9c0 11.3-9.2 20.5-20.5 20.5s-20.5-9.2-20.5-20.5 9.2-20.5 20.5-20.5 20.5 9.2 20.5 20.5z" fill="#EEEDEC"/>
    <path d="M53 31.6C53 43.4 43.4 53 31.6 53s-21.4-9.6-21.4-21.4 9.6-21.4 21.4-21.4S53 19.7 53 31.6z" fill="none" stroke="#25B4C1" stroke-linecap="round" stroke-linejoin="round" stroke-miterlimit="10" stroke-width="4"/>
    <circle cx="32" cy="32" fill="#4CAE96" r="28.5"/>
    <path d="M53.5 31.3c0 12.2-9.9 22-22 22s-22-9.8-22-22 9.9-22 22-22 22 9.9 22 22z" fill="#CFC6BF"/>
    <path d="M53.8 32.8c0 12.1-9.8 21.9-21.9 21.9S10 44.9 10 32.8s9.8-21.9 21.9-21.9 21.9 9.8 21.9 21.9z" fill="#EEEDEC"/>
    <path d="M32.2 14.3l.3 15.6-1.3.4v-16h1z" fill="#9F9CA4"/>
    <path d="M50.2 34.3l-15-.3c-.5-1.5-1.8-2.6-3.4-2.6-.9 0-1.7.3-2.3.8l-10-5.7-1.2 2 9.9 5.6c-.1.3-.1.6-.1.9 0 2 1.6 3.6 3.6 3.6 1.6 0 2.9-1 3.4-2.4h15.1v-1.9z" fill="#C7C4B9"/>
    <path d="M50.2 32.3h-15c-.5-1.5-2.1-2.8-3.7-2.8-.9 0-1.7.3-2.3.8l-10-5.7-1.1 1.9 9.9 5.6c-.1.3-.1.6-.1.9 0 2 1.6 3.6 3.6 3.6 1.6 0 2.9-1 3.4-2.4l15.3-.1v-1.8z" fill="#4B494E"/>
  </symbol>
  <symbol id="svg-calendar" viewBox="0 0 64 64">
    <path d="M47.5 56.4h-40c-1.6 0-3.1-.8-3.1-2.4V10.9C4.5 9.3 5.8 8 7.4 8h49c1.6 0 2.9 1.3 2.9 2.9v33.4L47.5 56.4z" fill="#DAD8CD"/>
    <path d="M59.5 21.4l-55 .1V10.9c0-1.6 1.3-3.4 2.9-3.4h49c1.6 0 2.9 1.8 2.9 3.4l.2 10.5z" fill="#D14241"/>
    <path d="M35.5 56.4l12-11.9h12L47 56.5l-11.5-.1z" fill="#A8A59B"/>
    <path d="M59.5 44.5h-12v12l12-12z" fill="#E8E8E4"/>
    <path d="M19.5 14.7c0 1.1-.9 2-2 2s-2-.9-2-2 .9-2 2-2 2 .9 2 2zm29 0c0 1.1-.9 2-2 2s-2-.9-2-2 .9-2 2-2c1.2 0 2 .9 2 2z" fill="#FFF"/>
    <path d="M23.9 27.6c.9 0 1.7.1 2.4.4.7.3 1.3.6 1.8 1.1s.9 1 1.2 1.6c.3.6.4 1.3.4 2.1 0 .7-.1 1.3-.3 1.8s-.4 1.1-.8 1.6-.7 1-1.1 1.5-.9 1-1.4 1.4l-2.5 2.6c.5-.1-.2.7.3.7s.9-.4 1.3-.4h3.4c.4 0 .6.3.8.5s0 .6 0 1v2H17.6l-.1-1c0-.2.1-.6.2-.8.1-.3.1-.4.3-.6l5.2-5.2c.4-.4.8-.9 1.2-1.3.3-.4.6-.8.8-1.2.2-.4.4-.8.5-1.2.1-.4.2-.8.2-1.2 0-.7-.2-1.3-.5-1.7-.3-.4-.9-.6-1.6-.6-.3 0-.6 0-.8.1-.2.1-.5.2-.6.3-.2.1-.4.3-.5.5l-.3.6c-.1.4-.3.6-.5.8-.2.2-.5.2-.8.2h-.6l-2-.4c.1-.9.4-1.7.8-2.4s.8-1.2 1.4-1.7 1.2-.8 1.9-1 1.3-.1 2.1-.1zM39 33.8c.7 0 1.3.1 1.9.3.6.2 1.2.5 1.7 1s.9 1 1.2 1.7.5 1.5.5 2.4c0 .8-.2 1.6-.5 2.4s-.8 1.4-1.3 2-1.3 1-2.1 1.3-1.7.5-2.7.5-1.9-.2-2.7-.5c-.8-.3-1.5-.8-2-1.3-.6-.6-1-1.2-1.3-2s-.3-1.7-.3-2.6c0-.9 0-1.8.4-2.7.3-.9.9-1.8 1.5-2.7l4.1-5.5c.2-.2.5-.2.9-.4s.6-.1 1.1-.1h3.2l-5 6c-.1.1-.2.2-.2.3-.1.1-.2.2-.2.3.3-.1.6-.2.9-.2s.6-.2.9-.2zm-4 5.7c0 .4.1.8.2 1.2s.3.7.5.9c.2.3.5.5.8.6s.7.2 1.2.2c.4 0 .8-.1 1.1-.2s.6-.4.9-.6l.6-.9c.1-.4.2-.7.2-1.1 0-.5-.1-.9-.2-1.2-.1-.4-.3-.7-.6-.9-.2-.2-.5-.4-.9-.6-.3-.1-.7-.2-1.2-.2-.4 0-.7.1-1.1.2-.3.1-.6.3-.8.6l-.6.9c-.1.2-.1.6-.1 1.1z" fill="#353339"/>
  </symbol>
  <symbol id="svg-employees" viewBox="0 0 64 64">
    <path d="M61.9 58.4L2 58.5v-41h60l-.1 40.9z" fill="#E7DFD3"/>
    <g fill="#7A7270">
      <path d="M30 52.5H8v-22l22 .1v21.9zM37 33.5h18v3H37v-3zM37 39.5h18v3H37v-3zM37 45.5h18v3H37v-3z"/>
    </g>
    <path d="M50 22.5c0 1.2-1.8 2-3 2H17c-1.2 0-3-.8-3-2v-4c.1 0 35.9.1 36 0v4z" fill="#605B5B"/>
    <path d="M29.6 10.5c0-1.2 1-2.2 2.2-2.2 1.2 0 2.2 1 2.2 2.2 0 .2 0 .4-.1.6-.3 1.1-1.5 1.8-2.6 1.5-.7-.2-1.3-.8-1.5-1.5-.1-.2-.2-.4-.2-.6zm7.4 1l.3-.5c-.1-3-2.7-5.4-5.7-5.2-2.8.1-5.1 2.4-5.2 5.2l-.4.5H14v5h36v-5H37z" fill="#7A7270"/>
    <path d="M50 18.5H14.1v-.8l35.9-.2v1z" fill="#3E3232"/>
    <path d="M14 16.5h36v1H14v-1z" fill="#9E9594"/>
    <path d="M25.1 42.3c-1 .8-2.3 1.2-3.6 1.1-.1.5.1 1 .5 1.2.5.2.9.5 1.4.7.6.3 1.2.5 1.9.8.5.2.9.6 1.2 1 .3.5.4 1.1.3 1.7-.1.4-.4.6-.8.6H13c-.6 0-1.1-.3-1.1-.9-.1-.8.2-1.5.9-2 .4-.3.8-.6 1.3-.8.7-.3 1.4-.6 2.1-.8.2-.1.3-.1.5-.2.4-.2.7-.7.6-1.2-.6-.1-1.3-.2-1.9-.3-.6-.1-1.2-.4-1.7-.9.7-.6 1.2-1.4 1.2-2.4.1-.8.1-1.5.2-2.3 0-.9.2-1.8.4-2.6.3-1.3 1.5-2.3 2.8-2.5.5-.1 1.1-.1 1.6 0 .3.1.7.3.9.5.1.1.2.1.2.1.5 0 1 .2 1.4.4.4.4.8.9.9 1.4.2.8.3 1.6.3 2.4 0 .9.1 1.9.2 2.8.1 1 .6 1.7 1.3 2.2z" fill="#FDFDF6"/>
  </symbol>
  <symbol id="svg-customers" viewBox="0 0 64 64">
    <path d="M35.4 33.8l2.8-2.9 9.1.1 2.9 2.8-1 7.4H36.9l-.9 1" fill="#FFF"/>
    <path d="M35.4 34.7l-1.8.7-4.6 1.9c-1.4.6-2.6 1.5-3.6 2.6-2 2.8-1.8 7-1.8 7s5.7 1.5 7.6 1.7c6.3.7 12.7.9 19 .5C52.1 49 58 48 58 48l3.5-1.4c.1-1.1.1-2.1.1-3.2-.2-.8-.1-4.4-5.7-6.3-1.4-.5-5.7-2.5-5.7-2.5l-1.4 6.9c-2.2-3.1-3.9-3.2-3.9-3.2l-.9.2c-.4.1-.9.2-1.3.2-.3 0-.6.1-.9.1-.3-.1-1.1-.3-1.1-.3-1.7.4-3.2 1.5-4 3.1l-1.3-6.9z" fill="#6A95B2"/>
    <path d="M52.8 22c0-.8-.7-1.5-1.5-1.5s-2.2-5.6-4.7-8.1c-2.3-2.3-6.1-.4-8.6 2.3-2.3 2.5-3.2 5.8-3.7 5.8-.8 0-1.5.7-1.5 1.5 0 .1 0 .3.1.4.1.6.2 1.2.4 1.8.3.5.7.9 1.1 1.4l1.1 1.3 1 1.1c.2 1.4.9 2.7 1.8 3.7v3c.3 2.5 2.6 4.3 5.1 4 2.1-.3 3.7-1.9 4-4v-2.8c1-1.1 1.7-2.4 1.9-3.9l.9-1 1.1-1.3c.4-.4.8-.9 1.1-1.4.2-.6.3-1.2.4-1.8V22z" fill="#FAC672"/>
    <path d="M42.8 33.7c-1.7.1-3.4-.6-4.6-1.9v2.8c.3 2.5 2.7 4.3 5.2 3.9 2-.3 3.7-1.9 3.9-3.9v-2.8c-1.2 1.3-2.8 1.9-4.5 1.9z" fill="#E7B562"/>
    <path d="M52.8 22c0-.8-.7-1.5-1.5-1.5s-2.2-5.6-4.7-8.1c-1-1-2.4-1.3-3.8-.9v27.4c2.4.1 4.5-1.8 4.5-4.2v-2.8c1-1.1 1.7-2.4 1.9-3.9l.9-1 1.1-1.3c.4-.4.8-.9 1.1-1.4.2-.6.3-1.2.4-1.8.1-.3.1-.4.1-.5z" fill="#D8AC6A"/>
    <path d="M35.4 23.9l-.1-3.5.5-.5.5-.9.2-1v-.5l1.2.6c1 .5 2.1.8 3.2.9h1.2l2.2-.1.7-.4.5-.6.5-1.2.4-.9s.1-.5.3-.5h.5c.2 0 .4.1.6.2.4.4.6.9.9 1.4l.8 1.6.4 1.4V24l1.4-2.8s.9-4.8-.5-7.7c-.1-.1-.6-1-.7-1.2-.1-.3-.2-.5-.3-.7-.2-.4-.4-.8-.7-1.1-.3-.2-.7-.4-1-.5-.4-.2-.8-.5-1.3-.6-1.1-.4-2.3-.7-3.5-.9-1.7.1-3.3.4-4.9 1.1-1.3.7-.9.5-1.2.7-.3.2-.7.5-1 .7-.2.2-.5.5-.7.8-.3.3-.5.7-.8 1.1-.1.3-.4.9-.5 1.1-.1.3-.2.5-.3.8-.1 1.1-.2 2.1-.2 3.2v3.4l1.7 2.5z" fill="#656D78"/>
    <path d="M14.4 31.7H33v16.9H14.4V31.7z" fill="#FFF"/>
    <path d="M8.3 36l2-.3.3-.7v-.3H8.4l-1-1-.7-.9-.3-.8v-.5h2.1l.6-.5H7.6l-1.7-.7-.9-.6h2l1.7-.7 1.6-1 .6-.7.5-1.9.4-3.2.6-2.8.5-1.8.6-1.9.7-1.5.9-1.6 1-1.4.8-.8 1.3-.9 1.2-.5 1.6-.5 1.8-.3 2.6.3 1.5.5 2.1 1 1.6 1.1 1.5 1.4 1.3 2 1.1 2.6.9 2.9.9 3.3.3 2.9v3.4l-.3 2.7-.4 1.8-.5 1.9-.7 1.2-1.1 1.5-1.4-.7-3.9-1.3-3.8 3.5H21l-2.8-3.6-4.8 2.4-2.4-.9L9.2 37l-.9-1z" fill="#424A54"/>
    <path d="M31.5 22.5l-.4-1.8-.6-1.6-1.2-1.9-1.5-1.4-1.2-1.1-1.3-.5-.5 1.3-.7 1.4-.8 1.5v17.1l1.3-.1 1.1-.4 1.7-1 1.4-1.5 1.3-1.7.7-1.3.7-2.6.2-1.9-.2-2.5z" fill="#FAC672"/>
    <path d="M23.3 18.8l-1 1.3-.7.9-1.1.7-.7.3-.1-2.9-.5.7-.4.9-.1.6-.1.2-.3-.3-.7-.3-.5-.2-1 .1-1.2.7-.2 2.1v2.9l.8 3.7.9 1.6 1.6 1.4 1 .8 2.3 1.2 1.9.3h.3v-17l-.2.3z" fill="#FAC672"/>
    <path d="M22.6 33.5l-4.2-.6-.4 3.8 4 6.4h1.4v-9.7h-.8z" fill="#E7B562"/>
    <path d="M29.1 37.1v-.8l-.5-3.3-1.2.6h-4v9.7h1.2l4.5-6.2z" fill="#DFB067"/>
    <path d="M13 39.2s-8.2 3.2-9.7 7.9c-.5 1.7-.8 3.4-1 5.1 18.3 7.7 41.3.4 42 .2.2-.1-.1.5 0 .4.3-.5.9-5.5-1.4-8.3-1.5-1.4-3.2-2.6-5-3.5l-5.1-2.8-.7-.2s-.1 2.3-.2 3.1c-.2.9-.5 1.9-.9 2.8-.2.5-1 1.8-1 1.8s-1.6-.7-3-1.4c-.7-.4-1.4-.9-2.1-1.4-.5.1-1 .2-1.5.2s-1-.1-1.5-.2c-.9.7-1.8 1.5-2.9 2.1-.8.3-1.6.5-2.5.7 0 0-1-2.4-1.2-3.2-.4-1.3-.5-2.7-.5-4.1l-1.8.8z" fill="#ED6E73"/>
  </symbol>
  <symbol id="svg-booking" viewBox="0 0 64 64">
    <path d="M31.8 43.8h2.5v3.9h-2.5v-3.9zM52.7 51.1c0 .3-.1.2-.3.2H13.5c-.3 0-.1.1-.1-.3v-.6c0-.3-.2-.2.1-.2h38.8c.3 0 .3 0 .3.3v.6z" fill="#4EAFD9"/>
    <path d="M36.1 50.4c0 1.8-1.3 3.2-3.1 3.3-1.8 0-3.2-1.3-3.3-3.1 0-1.8 1.3-3.2 3.1-3.3h.1c1.8 0 3.2 1.4 3.2 3.1zM46.1 43.9c2 0 4-.5 5.7-1.6 4.5-2.9 5.8-8.9 2.8-13.4 0-.1-.1-.1-.1-.2a9.5 9.5 0 0 0-5.2-3.8c-.3-.1-.7-.2-.6-.7 0-.7 2.5-2 2.5-2.7-.6-6.7-8.9-11.6-16.1-11.1-3.5.2-6.8 1.8-9 4.6-.2.3-.6.5-1 .3-4.4-1.6-9.2.1-11.6 4.1-.8 1.3-1.3 2.8-1.4 4.4.1.5-.2 1-.7 1.1C7.8 26.1 5.3 29.3 5 33c-.5 3.3.9 6.7 3.6 8.7 2.1 1.6 4.6 2.3 7.2 2.2h30.3z" fill="#207EB0"/>
    <path d="M48.9 43.9c2 0 4-.5 5.7-1.6 4.4-2.7 5.7-8.5 3-12.9-.1-.2-.2-.3-.3-.5-1.2-1.8-3.1-3.1-5.2-3.7-.3-.1-.7-.2-.6-.7.1-.7.1-1.4 0-2.1-.7-6.8-6.7-11.9-13.6-11.3-3.5.2-6.7 1.8-9 4.4-.2.3-.6.5-1 .3-4.3-1.6-9.1.1-11.6 4-.8 1.3-1.3 2.8-1.4 4.3.1.5-.2 1-.8 1.2-3.6 1.1-6.1 4.3-6.4 8-.4 3.2.9 6.5 3.6 8.4 2.1 1.5 4.6 2.3 7.2 2.1 3.1.1 25.9.1 30.4.1z" fill="#4EAFD9"/>
  </symbol>
  <symbol id="svg-settings_opinions" viewBox="0 0 64 64">
    <path d="M58.6 25.9c-.2-.7-.9-1.1-1.5-1H39.6c-.4.1-.7-.2-.8-.6-.8-2.7-1.7-5.4-2.5-8-.9-2.9-1.8-5.8-2.8-8.7-.1-.6-.7-1.1-1.3-1.1v39.8l9.5 7 5 3.7c.5.5 1.2.5 1.8.1.6-.4.8-1.1.5-1.8-.1-.2-.1-.4-.2-.6-1.7-5.3-3.4-10.6-5.2-15.9-.2-.4-.1-1 .4-1.2 3.3-2.3 6.6-4.7 9.8-7l4.2-3c.6-.3.9-1 .6-1.7z" fill="#FBB34B"/>
    <path d="M30.6 7.6c0 .1-.1.2-.1.3-1.8 5.5-3.5 10.9-5.3 16.4-.1.4-.5.8-.9.7h-.1c-1.1-.1-2.2 0-3.2 0l-14-.1c-.5-.1-1.1.2-1.4.6-.5.7-.3 1.5.4 2 0 0 .1.1.2.1 4.7 3.4 9.5 6.8 14.2 10.2.4.2.5.6.3.9v.1l-5.4 16.5c-.4.7-.1 1.6.6 2 .6.3 1.3.2 1.8-.3l8.1-6 6.4-4.7V6.5c-.8 0-1.4.5-1.6 1.1z" fill="#FCC455"/>
  </symbol>
  <symbol id="svg-communication" viewBox="0 0 64 64">
    <path d="M26.7 12.3C18 12.3 12 14.4 8.2 18c-3.3 3.1-5 7.5-4.8 12-.2 6.1 2.9 11.8 8.2 14.8-1.2 3.2-3.1 6-5.6 8.4h.9c5.7.1 11.4-1.7 16-5 1 .1 1.9.1 2.9.1 4.5.1 8.9-.7 13-2.4 2.5-1.1 4.8-2.7 6.6-4.8 2.3-2.8 3.5-6.3 3.4-9.9.1-12.5-8.6-18.9-22.1-18.9z" fill="#8E6FAF"/>
    <path d="M53.8 37.7c4.4-2.6 7-7.3 6.8-12.3.1-3.7-1.3-7.3-4-9.9-3.2-2.9-8.2-4.7-15.4-4.7-11.2 0-18.4 5.3-18.4 15.8 0 8.4 6.9 14.1 19.2 14.1.8 0 1.7 0 2.4-.1 3.9 2.8 8.6 4.3 13.3 4.2h.7c-2-2-3.6-4.4-4.6-7.1z" fill="#EDEDED"/>
    <path d="M37.1 21.3h2.5v2.5h-2.5v-2.5zm7 0h2.5v2.5h-2.5v-2.5zM33.2 26.2c1.1.5 1.9.9 2.5 1.1.7.2 1.3.4 2 .6.7.2 1.5.3 2.1.4.7.1 1.4.1 2.1.1 1.4 0 2.7-.1 4.1-.5 1.6-.4 3.2-1 4.7-1.7v1.7c-1.3.9-2.6 1.6-4.1 2.1-1.4.5-2.9.7-4.4.8-1.4 0-2.7-.2-4-.6-1.7-.5-3.3-1.2-4.8-2.2l-.2-1.8z" fill="#6B4E91"/>
    <path d="M45.4 41.2c-.3-.2-.6-.4-.9-.7-.8.1-1.6.1-2.4.1-12.3 0-19.2-5.7-19.2-14.1 0-5.3 1.8-9.2 5-11.9-5.6 3.3-8.8 9.6-8.2 16.1.5 8.8 8 14.3 19.2 15.3 2.5-1 4.7-2.7 6.5-4.8z" fill="#52296F" opacity=".6"/>
  </symbol>
  <symbol id="svg-client_communication" viewBox="0 0 64 64">
    <path d="M3.5 35.8l57-27.2-9.6 45.3-12.5-13.2L33 55.4 20.9 35.9l-17.4-.1z" fill="#50D2D5"/>
    <path d="M20.9 35.9L60.4 8.6l-22 32.1L33 55.4 20.9 35.9z" fill="#1B9191"/>
    <path d="M38.3 40.6L33 55.4l11-8.8-5.7-6z" fill="#297171"/>
  </symbol>
  <symbol id="svg-social_media" viewBox="0 0 64 64">
    <path d="M57.4 51.4c-.1 3.2-2.6 5.8-5.8 5.9H11.9c-3 0-5.5-2.6-5.4-5.6V12.1c0-3 2.4-5.5 5.4-5.6h39.7c3.2.2 5.7 2.8 5.8 6v38.9z" fill="#3C5A99"/>
    <path d="M44.4 20.1l-4.9.4c-3 .6-2.9 3.7-2.9 3.7l-.2 5.3 8.1-.1-.9 7.9s-7.1-.4-7.1-.1v20.1H35h-6.4l.2-20.1h-7.1s-.1-1.3-.1-1.9v-6c0-.5.5.1.9.1h5.2c1 0 .9-.1.9-1v-7c-.1-4.2 2.9-7.9 7.1-8.6.8-.2 1.6-.3 2.4-.2h2.6l4 .1v6.5c-.2.4-.2.6-.3.9z" fill="#FFF"/>
  </symbol>
  <symbol id="svg-billing" viewBox="0 0 64 64">
    <path d="M57.9 50.9c0 3.9-3.1 7-7 7h-38c-3.9 0-7-3.1-7-7v-38c0-3.9 3.1-7 7-7h38c3.9 0 7 3.1 7 7v38z" fill="url(#settings-billing-gradient)"/>
    <path d="M28.9 47.7h7.6l12.2-30.5h-4.5l-8.7 22.2L27 17.2h-9.7l11.6 30.5z" fill="#FFF"/>
  </symbol>
  <symbol id="svg-prepayments" viewBox="0 0 64 64">
    <circle cx="34.6" cy="16.4" fill="#F9D861" r="11.4"/>
    <circle cx="34.6" cy="16.4" fill="#F8C00F" r="8.7"/>
    <path d="M53.4 55.8c-.4 2.1-2.3 3.5-4.4 3.1L8.3 51.8c-2.1-.4-3.5-2.3-3.1-4.4l5.1-29.6c.4-2.1 2.3-3.5 4.4-3.1l40.7 7.1c2.1.4 3.5 2.3 3.1 4.4l-5.1 29.6z" fill="#6D4C41"/>
    <path d="M48.7 51.6c-.3 1.6-1.8 2.7-3.5 2.4l-31.9-5.5c-1.6-.3-2.7-1.8-2.4-3.5l4-23.1c.3-1.6 1.8-2.7 3.5-2.4L50.3 25c1.6.3 2.7 1.8 2.4 3.5l-4 23.1z" fill="#6D4C41"/>
    <path d="M44.7 54.8l-3.4-.6.3-1.5 3.4.6-.3 1.5zm3.1-.4l-1-1.1.6-.5c.4-.3.6-.8.7-1.3l.1-.7 1.5.2-.1.8c-.1.8-.5 1.6-1.2 2.1l-.6.5zm-9-.7l-3.4-.6.3-1.5 3.4.6-.3 1.5zm-5.8-1l-3.4-.6.3-1.5 3.4.6-.3 1.5zm-5.9-1l-3.4-.6.3-1.5 3.4.6-.3 1.5zm-5.8-1l-3.4-.6.3-1.5 3.4.6-.3 1.5zm-5.8-1l-2.2-.4c-.2 0-.4-.1-.6-.2l-.7-.3.5-1.4.7.3c.1 0 .2.1.4.1l2.2.4-.3 1.5zM50 48.6l-1.5-.3.6-3.4 1.5.3-.6 3.4zm-38.4-2.4l-1.5-.2.1-.7V45l.4-2.4 1.5.3-.4 2.4v.2l-.1.7zM51 42.7l-1.5-.3.6-3.4 1.5.3-.6 3.4zm-38.5-2.3l-1.5-.3.6-3.4 1.5.3-.6 3.4zm39.6-3.5l-1.5-.3.3-1.9 1.7-.3-.5 2.5zm-38.5-2.4l-1.5-.3.6-3.4 1.5.3-.6 3.4zm39.5-3.4l-1.5-.3.4-2.4v-.2l.1-.7 1.5.1-.1.7v.3l-.4 2.5zm-38.5-2.4l-1.5-.3.6-3.4 1.5.3-.6 3.4zm36.6-2.6l-.7-.2c-.1 0-.2-.1-.4-.1l-2.1-.4.3-1.5 2.2.4c.2 0 .4.1.6.2l.7.2-.6 1.4zM45.6 25l-3.4-.6.3-1.5 3.4.6-.3 1.5zm-5.9-1l-3.4-.6.3-1.5 3.4.6-.3 1.5zm-5.8-1.1l-3.4-.6.3-1.5 3.4.6-.3 1.5zm-18.3-.1l-1.5-.2.1-.8c.1-.8.5-1.6 1.1-2.1l.6-.5 1 1.1-.6.5c-.4.3-.6.8-.7 1.3v.7zm12.4-.9l-3.4-.6.3-1.5 3.4.6-.3 1.5zm-5.8-1l-3.4-.6.3-1.5 3.4.6-.3 1.5z" fill="#3D2723"/>
    <path d="M53.3 55.8c-.1.7-.4 1.2-.8 1.7L42.2 43.6l5.4-9.2 9.2 1.6-3.5 19.8z" fill="#3D2723" opacity=".5"/>
    <path d="M58.1 43.5c-.4 2.3-2.7 3.9-5.1 3.5l-7.9-1.4c-2.4-.4-4-2.6-3.6-5l.7-4.1c.4-2.3 2.7-3.9 5.1-3.5l7.9 1.4c2.4.4 4 2.6 3.6 5l-.7 4.1z" fill="#3D2723"/>
    <circle cx="48.2" cy="39.7" fill="#E8E8E8" r="3.4"/>
  </symbol>
  <symbol id="svg-moment_power" viewBox="0 0 100.6 84.63">
    <polygon fill="#f9a93e" points="50.31 0 11.49 64.28 89.13 64.28 50.31 0"/>
    <rect fill="#fcc455" height="15.39" width="77.66" x="11.47" y="69.24"/>
    <polygon fill="#fbb34b" points="31.41 64.28 89.13 64.28 100.6 11.65 31.41 64.28"/>
    <polygon fill="#fcc455" points="69.19 64.28 11.47 64.28 0 11.65 69.19 64.28"/>
  </symbol>
  <symbol id="svg-extra_settings" viewBox="0 0 64 64">
    <path d="M58.9 29.5c.1-.3-.1-.7-.5-.8-2.1-.6-4.1-1.4-6.2-2-.4-.1-.7-.4-.9-.8-.4-1.1-.9-2.2-1.3-3.3-.1-.3-.1-.6 0-.8l3-6.3c.2-.2.1-.5-.1-.7L51.2 13l-13 13c1.6 1.5 2.5 3.7 2.6 5.9.1 4.8-3.7 8.7-8.5 8.8h-.1c-2.3 0-4.5-.9-6.1-2.6l-13 13L15 53c.2.2.6.3.8.1 2-1 4-2.1 6-3.1l.5-.2.4.1c1.1.5 2.2.9 3.4 1.4.3.1.6.4.7.7.8 2.1 1.5 4.3 2.3 6.4.1.3.3.5.7.5h5c.3.1.6-.2.7-.5.7-2.1 1.4-4.2 2.1-6.4.1-.3.3-.6.6-.7 1.1-.4 2.2-.9 3.3-1.4.3-.2.7-.2 1 0 2 1 4.1 2 6.1 2.9.3.2.6.1.8-.1l3.6-3.6c.3-.2.3-.5.1-.8-1-2-2.1-4.1-3.1-6.1-.1-.2-.1-.5 0-.8.4-1.2.9-2.3 1.4-3.5.1-.2.3-.4.6-.5 2.2-.8 4.4-1.6 6.5-2.4.3 0 .4-.3.4-.6-.1-1.5-.1-3.2 0-4.9z" fill="#A5A4A4"/>
    <path d="M23.5 32.2c-.1-4.8 3.7-8.7 8.5-8.7 2.3 0 4.6.9 6.2 2.5l12.9-12.9c-.7-.6-1.3-1.3-2-2-.2-.2-.5-.2-.7 0-2 1-4.1 2.1-6.1 3.1-.3.2-.6.2-.9 0-1-.5-2.1-.9-3.2-1.4-.4-.1-.7-.5-.8-.9-.8-2.1-1.5-4.3-2.3-6.4-.1-.3-.3-.5-.6-.4h-5c-.3-.1-.6.2-.7.5-.7 2.1-1.4 4.3-2.1 6.4-.1.4-.4.7-.7.8-1.1.4-2.1.8-3.1 1.3-.4.2-.8.2-1.2 0-2-.9-3.9-1.9-5.9-2.8-.3-.2-.8-.1-1 .2-1.2 1.1-2.3 2.3-3.5 3.4-.3.2-.4.6-.1.9 1 2 2 4 3.1 6 .1.3.1.6 0 .9-.5 1.1-1 2.2-1.4 3.3-.1.3-.4.6-.7.7-2.1.8-4.3 1.5-6.5 2.4-.3.1-.5.3-.4.6v5.1c0 .4.1.5.5.7l6.6 2.1c.3.1.5.3.6.6.5 1.1 1 2.2 1.4 3.4.1.3.1.6 0 .9-1 2.1-1.9 4.2-2.9 6.3-.2.2-.1.5.1.7l1.7 1.7 12.7-13c-1.6-1.6-2.5-3.8-2.5-6z" fill="#717070"/>
    <path d="M32 43.7c-6.5 0-11.7-5.2-11.8-11.7S25.5 20.3 32 20.3 43.7 25.5 43.7 32c0 6.5-5.2 11.7-11.7 11.7zm0-25.1c-7.4 0-13.4 6-13.4 13.4s6 13.4 13.4 13.4 13.4-6 13.4-13.4-6-13.4-13.4-13.4z" fill="#F8FAFA"/>
  </symbol>
  <symbol id="svg-automatic_marketing" viewBox="0 0 64 64">
    <path d="M19.5 60.4c2.2.8 4.5 1.3 6.8 1.4 3.7.2 7.4-.9 10.3-3.2 1-.8 1.9-1.6 2.8-2.6.7-.9 2.7-3.8 2.7-3.8l7.4-13.6-2.4-3.1-11.9 17.1-6.9 2-9.6-.7-5.7-3.6s-2.7-2.8-3.9-2.9c-.5 0-1.4-.1-1.5.4-.4 1.1 1.4 3.5 1.9 4.6 2.6 5.6 10 8 10 8z" fill="#AB2935"/>
    <path d="M24.3 24.9L26 28s-6.5 11.3-8.3 15.3c-.2.5-.3 1-.4 1.6 0 1.1.1 2.2.3 3.3l-.7.9-5.3-2.7 1.2-10.9 4.2-7.1 4.1-3.8 3.2.3z" fill="#AB2935"/>
    <path d="M44.9 22.9l-5.5 9.4 7.7 3.3 5.2-9.3-7.4-3.4z" fill="#E8E8E8"/>
    <path d="M47.2 35.5l2.4 3.1 5-9.4-2.2-3-5.2 9.3zM29.2 16.2l-5 8.7L26 28l5.2-9.1-2-2.7z" fill="#AAA"/>
    <path d="M21.3 12.6l-5.1 8.9 7.9 3.4 5.1-8.7-7.9-3.6z" fill="#E8E8E8"/>
    <path d="M33.5 2.2L27 8.7l2.7.3-2 5.2L34.5 7l-2.5.3 1.5-5.1z" fill="#2FC5EE"/>
    <g fill="#E06543">
      <path d="M56.7 12.2l-6.5 6.6 2.7.2-2 5.2 6.8-7.1-2.6.2 1.6-5.1zM16.2 21.5l-5.8 10.3s-2.1 3.5-2.7 4.7c-.3.6-.6 1.2-.8 1.9-.2.6-.3 1.1-.4 1.7-.1.8-.2 1.5-.2 2.3 0 .9 0 1.9.2 2.8.3 1.1.6 2.3 1 3.4.5 1.2 1.1 2.3 1.9 3.4.5.5 1 1.1 1.6 1.6 0 0 3.6 2.5 4.9 3.1 1.7.8 3.4 1.4 5.1 1.9 2.1.4 4.3.5 6.4.1.8-.1 1.6-.3 2.4-.6 1.3-.5 2.5-1.1 3.6-1.8 1.6-1.1 3.1-2.4 4.4-3.8l1.8-2.6 7.6-14.3-7.8-3.3s-5.6 10.5-7.7 13.9c-.3.5-.7 1.1-1.1 1.5-1 1.1-2.3 1.9-3.8 2.4-1 .1-2 .1-3 0-1.6-.3-6.1-2.6-6.1-2.6-.7-.5-1.3-1.1-1.9-1.8-.3-.7-.6-1.5-.6-2.3-.1-.7-.1-1.3 0-2 .1-.6.3-1.1.6-1.6C17.5 36 24.2 25 24.2 25l-8-3.5z"/>
    </g>
  </symbol>
</svg>
